<svg width="100" height="100" viewBox="0 0 100 100" fill="none" xmlns="http://www.w3.org/2000/svg">
<path d="M15.7895 0H84.2105C88.3982 0 92.4143 1.66353 95.3754 4.62463C98.3365 7.58573 100 11.6018 100 15.7895V84.2105C100 88.3982 98.3365 92.4143 95.3754 95.3754C92.4143 98.3365 88.3982 100 84.2105 100H15.7895C11.6018 100 7.58573 98.3365 4.62463 95.3754C1.66353 92.4143 0 88.3982 0 84.2105V15.7895C0 11.6018 1.66353 7.58573 4.62463 4.62463C7.58573 1.66353 11.6018 0 15.7895 0ZM15.7895 5.26316C12.9977 5.26316 10.3203 6.37218 8.34624 8.34624C6.37218 10.3203 5.26316 12.9977 5.26316 15.7895V76.7895L27.8421 54.1579L41 67.3158L67.3158 41L94.7368 68.4211V15.7895C94.7368 12.9977 93.6278 10.3203 91.6538 8.34624C89.6797 6.37218 87.0023 5.26316 84.2105 5.26316H15.7895ZM41 74.7895L27.8421 61.6316L5.26316 84.2105C5.26316 87.0023 6.37218 89.6797 8.34624 91.6538C10.3203 93.6278 12.9977 94.7368 15.7895 94.7368H84.2105C87.0023 94.7368 89.6797 93.6278 91.6538 91.6538C93.6278 89.6797 94.7368 87.0023 94.7368 84.2105V75.8421L67.3158 48.4737L41 74.7895ZM28.9474 15.7895C32.4371 15.7895 35.7838 17.1757 38.2514 19.6433C40.719 22.1109 42.1053 25.4577 42.1053 28.9474C42.1053 32.4371 40.719 35.7838 38.2514 38.2514C35.7838 40.719 32.4371 42.1053 28.9474 42.1053C25.4577 42.1053 22.1109 40.719 19.6433 38.2514C17.1757 35.7838 15.7895 32.4371 15.7895 28.9474C15.7895 25.4577 17.1757 22.1109 19.6433 19.6433C22.1109 17.1757 25.4577 15.7895 28.9474 15.7895ZM28.9474 21.0526C26.8536 21.0526 24.8455 21.8844 23.3649 23.3649C21.8844 24.8455 21.0526 26.8536 21.0526 28.9474C21.0526 31.0412 21.8844 33.0492 23.3649 34.5298C24.8455 36.0103 26.8536 36.8421 28.9474 36.8421C31.0412 36.8421 33.0492 36.0103 34.5298 34.5298C36.0103 33.0492 36.8421 31.0412 36.8421 28.9474C36.8421 26.8536 36.0103 24.8455 34.5298 23.3649C33.0492 21.8844 31.0412 21.0526 28.9474 21.0526Z" fill="#BABABA"/>
</svg>
