<svg width="19" height="25" viewBox="0 0 19 25" fill="none" xmlns="http://www.w3.org/2000/svg">
<path d="M6.73906 13.9286L7.77812 10.5357L5.04688 8.33333H8.43125L9.5 5L10.5687 8.33333H13.9531L11.1922 10.5357L12.2312 13.9286L9.5 11.8155L6.73906 13.9286ZM2.375 25V15.8036C1.62292 14.9702 1.03906 14.0179 0.623437 12.9464C0.207813 11.875 0 10.7341 0 9.52381C0 6.86508 0.920312 4.6131 2.76094 2.76786C4.60156 0.922619 6.84792 0 9.5 0C12.1521 0 14.3984 0.922619 16.2391 2.76786C18.0797 4.6131 19 6.86508 19 9.52381C19 10.7341 18.7922 11.875 18.3766 12.9464C17.9609 14.0179 17.3771 14.9702 16.625 15.8036V25L9.5 22.619L2.375 25ZM9.5 16.6667C11.4792 16.6667 13.1615 15.9722 14.5469 14.5833C15.9323 13.1944 16.625 11.5079 16.625 9.52381C16.625 7.53968 15.9323 5.85317 14.5469 4.46429C13.1615 3.0754 11.4792 2.38095 9.5 2.38095C7.52083 2.38095 5.83854 3.0754 4.45312 4.46429C3.06771 5.85317 2.375 7.53968 2.375 9.52381C2.375 11.5079 3.06771 13.1944 4.45312 14.5833C5.83854 15.9722 7.52083 16.6667 9.5 16.6667ZM4.75 21.4583L9.5 20.2381L14.25 21.4583V17.7679C13.5573 18.1647 12.8102 18.4772 12.0086 18.7054C11.207 18.9335 10.3708 19.0476 9.5 19.0476C8.62917 19.0476 7.79297 18.9335 6.99141 18.7054C6.18984 18.4772 5.44271 18.1647 4.75 17.7679V21.4583Z" fill="#565656"/>
</svg>
